<?xml version="1.0" standalone="no"?>
<!DOCTYPE svg PUBLIC "-//W3C//DTD SVG 20010904//EN"
 "http://www.w3.org/TR/2001/REC-SVG-20010904/DTD/svg10.dtd">
<svg version="1.0" xmlns="http://www.w3.org/2000/svg"
 width="256.000000pt" height="256.000000pt" viewBox="0 0 256.000000 256.000000"
 preserveAspectRatio="xMidYMid meet">

<g transform="translate(0.000000,256.000000) scale(0.100000,-0.100000)"
fill="#000000" stroke="none">
<path d="M1359 1794 l-24 -27 24 13 c19 10 25 10 32 -1 7 -11 10 -12 21 -1 11
11 10 13 -2 10 -10 -2 -14 3 -12 15 4 25 -11 21 -39 -9z"/>
<path d="M1430 1800 c0 -5 5 -10 10 -10 6 0 10 5 10 10 0 6 -4 10 -10 10 -5 0
-10 -4 -10 -10z"/>
<path d="M851 1787 c0 -10 -5 -15 -11 -12 -5 3 -10 1 -10 -4 0 -6 4 -11 10
-11 5 0 6 -8 3 -17 -6 -15 -4 -16 9 -6 8 7 18 10 21 6 4 -3 7 1 7 10 0 10 -4
17 -9 17 -5 0 -12 8 -14 18 -4 16 -5 16 -6 -1z"/>
<path d="M1498 1793 c7 -3 16 -2 19 1 4 3 -2 6 -13 5 -11 0 -14 -3 -6 -6z"/>
<path d="M890 1778 c0 -16 21 -18 40 -5 19 14 19 14 -10 13 -16 -1 -30 -4 -30
-8z"/>
<path d="M1540 1786 c0 -2 7 -7 16 -10 8 -3 12 -2 9 4 -6 10 -25 14 -25 6z"/>
<path d="M1361 1616 c-50 -13 -73 -42 -24 -30 15 4 38 11 51 15 35 13 88 11
127 -5 44 -19 45 -12 3 14 -37 22 -89 24 -157 6z"/>
<path d="M954 1601 c-29 -17 -52 -41 -41 -41 2 0 18 7 36 16 38 19 83 22 166
10 49 -7 58 -6 48 5 -15 15 -26 17 -113 25 -54 4 -70 2 -96 -15z"/>
<path d="M1373 1510 c-35 -21 -46 -38 -15 -21 16 9 18 6 14 -20 -5 -36 21 -69
53 -69 47 0 69 66 34 99 -27 25 -21 26 26 7 40 -17 60 -47 42 -66 -9 -10 -9
-12 3 -8 28 9 17 51 -19 75 -42 28 -95 30 -138 3z m47 -26 c0 -9 -5 -14 -12
-12 -18 6 -21 28 -4 28 9 0 16 -7 16 -16z"/>
<path d="M981 1503 c-40 -20 -61 -58 -41 -76 10 -9 11 -9 6 0 -20 35 54 84 94
63 15 -8 19 -15 12 -22 -12 -12 -35 -1 -27 13 4 5 2 9 -4 9 -20 0 -24 -50 -6
-70 37 -41 89 -16 87 41 -1 25 2 28 14 18 8 -6 14 -9 14 -5 0 13 -66 46 -90
46 -14 0 -40 -8 -59 -17z"/>
<path d="M1427 920 c-9 -11 -24 -20 -32 -20 -8 0 -15 -8 -15 -18 0 -24 28 -62
46 -62 20 0 18 -53 -3 -72 -73 -65 -268 -74 -330 -16 -29 28 -29 42 2 62 20
13 25 24 24 59 0 23 -3 36 -6 30 -7 -18 -43 -16 -65 4 -17 15 -18 15 -18 -4 0
-12 -12 -25 -32 -34 -24 -10 -32 -20 -30 -34 8 -55 26 -76 107 -125 87 -53
107 -70 104 -92 -4 -32 1 -36 37 -28 31 7 37 6 41 -11 7 -25 33 -25 33 1 0 17
7 20 48 20 44 -1 46 -1 23 -14 l-23 -13 23 -7 24 -7 -22 -11 c-28 -14 -30 -28
-4 -21 15 4 20 0 20 -13 -1 -11 2 -39 5 -63 4 -38 2 -44 -17 -49 -22 -6 -21
-6 3 -13 l25 -6 -25 -11 c-24 -10 -24 -11 -2 -11 38 -1 24 -22 -15 -22 -21 0
-62 0 -92 -1 l-53 0 5 -57 c4 -31 9 -102 13 -159 l7 -102 103 0 104 0 0 38 c0
20 -5 69 -11 107 -6 39 -11 77 -11 85 0 8 -3 49 -8 90 -5 41 -11 115 -15 164
-6 81 -4 93 19 140 30 62 81 113 160 160 57 34 116 47 116 26 0 -5 5 -10 10
-10 12 0 13 27 2 34 -11 6 -110 -17 -139 -33 -19 -10 -23 -9 -23 3 0 8 5 18
10 21 14 8 13 21 -3 37 -7 7 -14 18 -14 23 0 6 -18 17 -39 24 -21 8 -41 18
-44 23 -3 4 -14 -1 -23 -12z"/>
<path d="M1715 779 c-16 -8 -14 -8 11 -5 24 4 41 -2 71 -24 35 -26 39 -27 40
-10 1 11 -2 22 -8 25 -5 4 -9 1 -9 -5 0 -6 -13 -2 -29 9 -32 23 -45 25 -76 10z"/>
<path d="M1585 714 c-30 -25 -30 -25 -4 -15 15 5 37 7 50 5 l24 -5 -24 14
c-18 11 -20 16 -10 20 8 3 10 6 4 6 -5 0 -23 -11 -40 -25z"/>
<path d="M1670 710 c-13 -8 -12 -10 3 -10 9 0 17 5 17 10 0 12 -1 12 -20 0z"/>
<path d="M826 680 c-48 -4 -62 -10 -83 -34 -18 -21 -27 -26 -33 -17 -6 11 -9
11 -16 0 -4 -7 -3 -14 4 -17 7 -2 9 -9 5 -15 -4 -7 0 -8 11 -4 10 4 20 7 22 7
2 0 4 7 4 15 0 8 18 24 40 35 46 24 130 28 130 6 0 -18 -24 -37 -49 -39 -12
-1 -21 -7 -21 -14 0 -11 6 -10 30 2 16 8 34 15 41 15 6 0 31 10 54 21 41 21
44 21 93 5 70 -24 84 -49 93 -166 l7 -95 -2 103 c0 56 3 102 8 102 5 0 3 7 -5
16 -42 51 -204 87 -333 74z"/>
<path d="M1426 585 c4 -8 10 -12 15 -9 14 8 10 24 -6 24 -9 0 -12 -6 -9 -15z"/>
<path d="M1107 554 c-8 -8 1 -24 14 -24 5 0 9 7 9 15 0 15 -12 20 -23 9z"/>
<path d="M1770 549 c0 -5 5 -7 10 -4 6 3 10 8 10 11 0 2 -4 4 -10 4 -5 0 -10
-5 -10 -11z"/>
<path d="M1213 510 c3 -24 1 -41 -7 -44 -6 -2 2 -5 18 -5 22 -1 27 3 22 15 -3
9 -6 29 -6 45 0 20 -5 29 -16 29 -14 0 -16 -7 -11 -40z"/>
<path d="M1312 518 c-2 -39 -22 -55 -22 -18 0 11 -7 20 -15 20 -9 0 -15 -9
-15 -25 0 -22 4 -25 40 -25 29 0 40 -4 40 -15 0 -8 7 -15 15 -15 8 0 15 9 15
20 0 15 -7 20 -24 20 -21 0 -25 5 -29 38 l-4 37 -1 -37z"/>
<path d="M1841 481 c-27 -5 -38 -13 -48 -38 -8 -21 -9 -33 -3 -33 14 0 99 62
100 73 0 4 -3 6 -7 6 -5 -1 -23 -4 -42 -8z"/>
<path d="M765 444 c47 -85 70 -90 40 -9 -11 33 -14 35 -15 15 l0 -25 -21 25
-21 25 17 -31z"/>
<path d="M1242 420 c5 -30 -15 -44 -25 -17 -4 10 -6 10 -6 0 -1 -7 7 -21 18
-32 17 -17 18 -17 30 0 17 29 14 79 -5 79 -12 0 -15 -7 -12 -30z"/>
<path d="M1290 421 c0 -34 19 -44 54 -28 28 13 35 37 11 37 -8 0 -15 -7 -15
-15 0 -8 -4 -15 -10 -15 -5 0 -10 11 -10 25 0 16 -6 25 -15 25 -10 0 -15 -10
-15 -29z"/>
<path d="M640 414 c0 -30 32 -68 86 -99 33 -19 49 -24 57 -16 14 14 -29 61
-57 61 -12 0 -35 17 -53 37 -28 33 -32 35 -33 17z"/>
<path d="M1275 360 c-15 -24 17 -38 45 -20 13 9 13 11 0 20 -19 13 -37 13 -45
0z"/>
<path d="M807 336 c-3 -7 -1 -18 4 -23 5 -5 6 -23 3 -40 -5 -23 -16 -36 -50
-52 -24 -13 -42 -26 -39 -30 2 -5 22 -11 44 -15 22 -3 39 -11 38 -18 0 -7 1
-31 3 -53 2 -22 7 16 11 85 7 94 12 126 24 133 8 4 15 12 15 17 0 15 -47 12
-53 -4z"/>
<path d="M1802 322 c2 -9 11 -17 21 -17 24 0 23 18 -3 27 -17 6 -21 4 -18 -10z"/>
<path d="M1163 255 c0 -38 3 -99 7 -135 l7 -65 0 65 c0 36 -3 97 -7 135 l-7
70 0 -70z"/>
<path d="M1467 294 c-8 -8 1 -24 14 -24 5 0 9 7 9 15 0 15 -12 20 -23 9z"/>
<path d="M1946 278 c-11 -6 -32 -11 -47 -10 -20 0 -29 -5 -33 -21 -3 -12 -4
-23 -2 -25 6 -6 81 35 95 52 16 19 13 19 -13 4z"/>
<path d="M1125 259 c-10 -15 3 -25 16 -12 7 7 7 13 1 17 -6 3 -14 1 -17 -5z"/>
<path d="M540 224 c0 -9 14 -29 32 -46 52 -48 138 -85 138 -59 0 14 -48 42
-52 30 -5 -14 -85 48 -91 71 -6 24 -27 27 -27 4z"/>
<path d="M1531 232 c2 -23 15 -40 26 -34 9 6 7 12 -7 25 -11 9 -20 13 -19 9z"/>
<path d="M1832 176 c1 -10 8 -17 13 -17 15 1 12 24 -3 29 -9 3 -13 -2 -10 -12z"/>
<path d="M900 148 c-19 -6 -30 -13 -23 -15 6 -2 33 3 60 11 30 9 39 15 23 14
-14 0 -41 -4 -60 -10z"/>
<path d="M735 70 c-3 -5 1 -10 9 -10 8 0 18 5 21 10 3 6 -1 10 -9 10 -8 0 -18
-4 -21 -10z"/>
<path d="M1863 73 c9 -2 25 -2 35 0 9 3 1 5 -18 5 -19 0 -27 -2 -17 -5z"/>
<path d="M1980 59 c28 -5 48 -5 54 1 7 7 -9 10 -44 9 l-55 -1 45 -9z"/>
<path d="M814 24 c3 -9 6 -18 6 -20 0 -2 17 -4 37 -4 33 0 35 2 23 14 -8 8
-28 17 -43 20 -23 4 -28 2 -23 -10z"/>
</g>
</svg>
